<?xml version="1.0" encoding="UTF-8"?>
<svg id="Capa_1" data-name="Capa 1" xmlns="http://www.w3.org/2000/svg" viewBox="0 0 42 37.65">
  <defs>
    <style>
      .cls-1 {
        fill: #636363;
      }
    </style>
  </defs>
  <path class="cls-1" d="m0,1.76C0,.79.79,0,1.76,0h3.35c1.62,0,3.05.94,3.72,2.35h30.23c1.93,0,3.35,1.84,2.84,3.71l-3.02,11.2c-.63,2.31-2.72,3.92-5.11,3.92H12.55l.4,2.1c.16.83.89,1.43,1.74,1.43h21.2c.98,0,1.76.79,1.76,1.76s-.79,1.76-1.76,1.76H14.69c-2.54,0-4.73-1.81-5.2-4.3L5.69,4.01c-.05-.28-.29-.48-.58-.48H1.76c-.98,0-1.76-.79-1.76-1.76Zm9.41,32.36c0-1.95,1.58-3.53,3.53-3.53s3.53,1.58,3.53,3.53-1.58,3.53-3.53,3.53-3.53-1.58-3.53-3.53h0Zm24.71-3.53c1.95,0,3.53,1.58,3.53,3.53s-1.58,3.53-3.53,3.53h0c-1.95,0-3.53-1.58-3.53-3.53s1.58-3.53,3.53-3.53Z"/>
</svg>